<svg xmlns="http://www.w3.org/2000/svg" version="1.0" width="608.000000pt" height="608.000000pt" viewBox="0 0 608.000000 608.000000" preserveAspectRatio="xMidYMid meet">
<g transform="translate(0.000000,608.000000) scale(0.100000,-0.100000)" fill="#85959e" stroke="none">
<path d="M3010 5575 c-19 -9 -84 -64 -145 -123 -60 -59 -270 -263 -465 -452 -195 -190 -445 -433 -555 -541 -110 -107 -375 -366 -590 -574 -696 -677 -753 -735 -760 -777 -11 -59 3 -104 48 -160 72 -88 53 -95 264 112 104 102 280 275 393 385 480 468 592 577 1112 1084 301 293 564 546 583 561 70 56 123 75 206 75 124 0 172 -31 383 -244 340 -344 431 -471 503 -696 25 -82 28 -103 28 -235 -1 -132 -3 -153 -29 -230 -98 -295 -379 -544 -685 -606 -113 -22 -314 -15 -421 16 -192 55 -370 173 -585 389 -71 72 -134 131 -139 131 -5 0 -97 -87 -205 -193 -108 -106 -375 -368 -594 -582 -219 -213 -396 -391 -395 -396 2 -4 170 -178 373 -386 204 -208 644 -658 978 -1000 408 -417 618 -625 639 -632 48 -17 91 -13 136 11 22 13 290 266 594 563 304 297 632 616 728 710 96 94 258 252 360 351 102 99 280 272 395 385 116 112 251 244 302 293 99 96 123 133 123 193 -1 60 -32 112 -121 200 l-84 82 -130 -127 c-72 -70 -292 -284 -490 -477 -198 -192 -450 -438 -560 -545 -240 -236 -926 -904 -1045 -1019 -61 -59 -106 -93 -158 -118 -68 -33 -77 -35 -150 -31 -137 8 -205 57 -468 335 -249 263 -336 389 -400 578 -32 97 -44 288 -25 401 41 235 227 472 474 604 132 70 215 92 362 98 333 12 559 -97 877 -420 70 -72 132 -128 137 -126 5 1 67 59 138 128 1017 988 1094 1063 1091 1071 -3 7 -123 131 -512 529 -111 113 -361 369 -556 570 -556 571 -783 800 -812 821 -37 27 -105 33 -148 14z"/>
<path d="M2980 4498 c-417 -407 -500 -490 -500 -497 0 -19 274 -274 343 -319 193 -126 401 -99 575 75 92 92 135 176 140 275 9 143 -66 275 -273 485 l-130 133 -155 -152z"/>
<path d="M2764 2502 c-125 -44 -269 -177 -315 -292 -36 -88 -29 -211 17 -304 39 -76 118 -177 247 -311 l114 -120 332 325 c182 179 331 327 331 330 0 9 -202 205 -271 262 -36 31 -97 71 -135 89 -62 31 -78 34 -169 37 -76 2 -112 -2 -151 -16z"/>
</g>
</svg>