<?xml version="1.0" standalone="no"?>
<!DOCTYPE svg PUBLIC "-//W3C//DTD SVG 20010904//EN"
 "http://www.w3.org/TR/2001/REC-SVG-20010904/DTD/svg10.dtd">
<svg version="1.0" xmlns="http://www.w3.org/2000/svg"
 width="634.000000pt" height="634.000000pt" viewBox="0 0 634.000000 634.000000"
 preserveAspectRatio="xMidYMid meet">
<metadata>
Created by potrace 1.14, written by Peter Selinger 2001-2017
</metadata>
<g transform="translate(0.000000,634.000000) scale(0.100000,-0.100000)"
fill="#000000" stroke="none">
<path d="M2950 6333 c-791 -59 -1513 -395 -2057 -957 -539 -556 -860 -1294
-890 -2048 l-6 -157 251 -3 c138 -2 254 -7 259 -11 4 -5 10 -201 13 -435 3
-235 7 -428 8 -429 1 -1 15 -4 32 -8 16 -4 32 -11 35 -16 10 -15 222 -11 253
5 15 7 52 16 82 19 118 12 239 104 309 235 44 82 55 276 22 381 -22 71 -83
168 -116 183 -13 6 -32 23 -43 38 l-21 28 22 6 c12 3 36 6 52 6 58 1 56 -19
58 443 1 309 5 429 14 438 8 8 66 10 210 7 193 -5 199 -5 245 -32 50 -29 96
-89 124 -163 17 -44 17 -47 -7 -115 -24 -70 -68 -123 -154 -184 -30 -21 -30
-21 -14 -55 9 -19 43 -68 76 -109 104 -132 123 -163 117 -187 -6 -22 -12 -23
-88 -23 -44 0 -86 4 -92 8 -5 4 -26 29 -45 57 -18 27 -42 58 -51 69 -10 11
-30 38 -45 60 -15 23 -31 43 -34 46 -3 3 -14 20 -23 39 -29 56 -40 25 -49
-142 -15 -274 -19 -1008 -6 -1023 16 -19 458 -21 477 -2 7 7 12 33 12 58 0 72
-15 80 -143 80 -58 0 -117 4 -132 10 -26 10 -26 10 -23 112 l3 103 115 2 c166
4 160 1 160 76 0 36 -5 68 -12 75 -8 8 -46 12 -102 12 -50 0 -108 3 -129 6
l-38 7 3 81 3 81 135 3 c155 3 160 5 160 83 0 67 16 79 100 79 69 0 100 6 100
19 0 4 -24 33 -54 64 -30 32 -67 83 -82 115 -27 53 -29 67 -32 196 -3 108 0
153 13 200 25 91 86 170 181 236 l79 54 108 4 c159 6 203 -2 278 -51 77 -50
87 -62 135 -156 l38 -74 1 -136 c0 -119 -3 -145 -25 -209 -22 -64 -35 -84
-102 -154 -43 -44 -78 -84 -78 -88 0 -12 28 -20 75 -20 26 0 51 -7 64 -17 21
-18 21 -24 24 -438 l2 -420 87 -3 c84 -3 88 -2 93 20 5 21 3 289 -10 1280 -3
218 -2 412 3 430 l8 33 220 0 c241 -1 242 -1 361 -78 47 -30 110 -108 119
-147 3 -14 14 -51 25 -83 25 -76 25 -180 -1 -254 -11 -32 -20 -64 -20 -72 0
-8 -21 -45 -46 -83 -53 -78 -139 -142 -206 -153 -46 -8 -91 -28 -162 -73 -109
-69 -206 -253 -206 -392 0 -104 68 -264 145 -342 29 -30 146 -88 179 -88 11
-1 32 -7 46 -15 34 -19 191 -20 250 -1 25 8 64 20 88 26 81 21 82 24 82 243 0
137 -3 196 -12 205 -16 16 -170 16 -186 0 -8 -8 -12 -55 -12 -144 0 -93 -4
-135 -13 -142 -23 -20 -67 -24 -119 -12 -85 20 -106 30 -147 72 -55 54 -75
122 -69 232 6 119 41 186 118 228 l55 29 170 -3 169 -3 10 30 c8 27 28 76 46
115 4 8 21 17 37 21 67 13 69 17 35 52 -17 18 -43 54 -57 80 l-25 49 2 351 3
352 85 0 85 0 5 -330 c6 -374 7 -380 80 -409 87 -35 220 -5 242 54 6 14 16 39
24 55 11 23 15 97 17 330 l2 300 85 0 85 0 -1 -310 c0 -178 -5 -328 -11 -352
-14 -59 -56 -126 -104 -167 l-42 -35 27 -11 c15 -5 55 -10 90 -10 35 0 67 -5
74 -12 13 -13 18 -451 6 -495 -8 -31 -22 -29 -35 5 -14 37 -50 107 -83 162
-14 25 -43 72 -63 105 -20 33 -53 94 -75 135 -58 112 -71 120 -178 120 -49 0
-100 -4 -114 -10 l-26 -10 0 -429 c0 -356 2 -431 14 -440 9 -8 45 -11 98 -9
l83 3 6 270 c3 149 6 272 7 275 1 3 22 -37 47 -88 24 -51 57 -112 73 -136 16
-23 41 -68 56 -100 15 -32 42 -81 59 -110 18 -28 39 -65 47 -81 l16 -30 113
-3 c75 -2 118 1 127 9 12 9 14 82 14 414 0 222 3 411 6 420 4 9 25 25 48 37
37 19 39 22 22 32 -41 23 -88 84 -129 165 l-42 85 1 135 0 136 43 85 c52 104
115 170 201 213 64 32 66 32 216 32 172 0 191 -6 179 -59 -4 -17 -10 -49 -14
-71 -7 -45 -5 -45 -147 -30 -178 19 -274 -82 -274 -288 0 -158 52 -243 171
-282 53 -16 67 -17 122 -6 134 26 120 30 140 -36 10 -32 15 -66 12 -75 -4 -11
1 -20 14 -27 28 -15 244 -14 259 1 9 9 12 101 12 355 0 399 13 363 -129 363
-104 0 -105 1 -99 101 l3 54 318 3 317 2 11 -27 c13 -35 6 -113 -12 -124 -8
-5 -55 -9 -105 -9 -56 0 -94 -4 -102 -12 -19 -19 -17 -691 2 -707 9 -8 97 -11
302 -9 l289 3 -3 115 c-22 831 -403 1656 -1028 2221 -532 481 -1165 757 -1879
818 -111 10 -369 12 -475 4z m-1998 -2305 c117 -64 148 -114 148 -242 0 -102
-19 -152 -81 -215 -57 -57 -135 -92 -224 -100 l-70 -6 -5 -121 c-3 -82 -9
-126 -19 -138 -10 -12 -31 -16 -87 -16 -71 0 -75 1 -84 26 -14 37 -13 799 1
826 11 20 17 20 192 16 172 -4 185 -6 229 -30z m29 -1053 c17 -16 42 -52 55
-80 21 -44 24 -65 24 -168 0 -110 -2 -120 -26 -159 -33 -52 -55 -70 -122 -103
-58 -28 -152 -35 -169 -12 -15 18 -25 275 -17 427 l7 132 108 -4 c104 -3 109
-4 140 -33z"/>
<path d="M732 3888 c-17 -17 -16 -228 1 -252 12 -16 17 -17 58 -4 25 7 60 25
79 40 29 23 34 33 38 82 6 72 -11 114 -54 132 -41 17 -106 18 -122 2z"/>
<path d="M1412 3888 c-15 -15 -16 -181 -2 -209 13 -23 36 -24 110 -4 66 18 89
44 90 103 0 54 -25 98 -63 112 -41 14 -120 13 -135 -2z"/>
<path d="M2213 3873 c-59 -40 -84 -76 -101 -146 -30 -125 -11 -263 48 -336 19
-23 44 -44 56 -47 13 -3 28 -12 35 -20 17 -20 90 -17 146 7 26 11 67 40 90 65
50 53 62 102 59 244 -2 114 -26 179 -83 225 -33 26 -46 29 -122 33 -81 4 -88
2 -128 -25z"/>
<path d="M3071 3881 c-20 -20 -21 -28 -18 -277 2 -255 2 -256 26 -275 31 -25
91 -25 165 1 80 29 113 56 146 121 34 69 45 148 30 231 -28 159 -81 208 -236
216 -83 4 -93 3 -113 -17z"/>
<path d="M2195 3183 c-72 -16 -105 -38 -154 -99 l-51 -63 0 -99 c0 -89 2 -101
25 -131 45 -62 55 -68 237 -150 26 -11 51 -21 56 -21 4 0 16 -14 26 -30 22
-38 14 -99 -16 -127 -20 -18 -70 -20 -258 -11 l-55 3 -6 -70 c-3 -38 -4 -75
-2 -80 2 -6 21 -18 43 -28 52 -22 254 -24 297 -3 15 8 39 19 53 26 88 39 135
93 165 184 27 83 23 124 -21 193 -43 69 -127 127 -234 162 -39 12 -95 61 -104
88 -3 10 -2 31 2 48 7 23 17 32 44 40 20 5 40 13 44 18 12 12 58 8 104 -8 47
-17 87 -11 94 13 3 10 6 42 8 72 3 49 1 55 -22 67 -24 12 -228 17 -275 6z"/>
</g>
</svg>
